<svg width="16" height="16" viewBox="0 0 16 16" fill="none" xmlns="http://www.w3.org/2000/svg">
<path d="M12.6667 1.33325H3.33333C2.59333 1.33325 2 1.93325 2 2.66659V11.9999C2 12.7333 2.59333 13.3333 3.33333 13.3333H6L8 15.3333L10 13.3333H12.6667C13.4 13.3333 14 12.7333 14 11.9999V2.66659C14 1.93325 13.4 1.33325 12.6667 1.33325ZM8.66667 11.9999H7.33333V10.6666H8.66667V11.9999ZM10.0467 6.83325L9.44667 7.44659C8.96667 7.93325 8.66667 8.33325 8.66667 9.33325H7.33333V8.99992C7.33333 8.26659 7.63333 7.59992 8.11333 7.11325L8.94 6.27325C9.18667 6.03325 9.33333 5.69992 9.33333 5.33325C9.33333 4.59992 8.73333 3.99992 8 3.99992C7.26667 3.99992 6.66667 4.59992 6.66667 5.33325H5.33333C5.33333 3.85992 6.52667 2.66659 8 2.66659C9.47333 2.66659 10.6667 3.85992 10.6667 5.33325C10.6667 5.91992 10.4267 6.45325 10.0467 6.83325Z" fill="white"/>
</svg>
