<svg width="32" height="32" viewBox="0 0 32 32" fill="none" xmlns="http://www.w3.org/2000/svg">
<g clip-path="url(#clip0_1203:15544)">
<path d="M23.6783 18.3877C23.616 18.3577 21.2831 17.209 20.8686 17.0598C20.6993 16.999 20.518 16.9397 20.3252 16.9397C20.0102 16.9397 19.7455 17.0966 19.5394 17.405C19.3064 17.7514 18.6009 18.576 18.3829 18.8224C18.3545 18.8549 18.3156 18.8937 18.2924 18.8937C18.2715 18.8937 17.9104 18.7451 17.8011 18.6976C15.2986 17.6105 13.3991 14.9964 13.1386 14.5556C13.1014 14.4922 13.0998 14.4634 13.0995 14.4634C13.1087 14.4298 13.1928 14.3455 13.2362 14.3019C13.3633 14.1762 13.501 14.0105 13.6342 13.8502C13.6972 13.7743 13.7604 13.6982 13.8224 13.6265C14.0157 13.4017 14.1017 13.2271 14.2014 13.025L14.2537 12.9199C14.4972 12.4361 14.2892 12.0278 14.222 11.8959C14.1668 11.7856 13.1818 9.40824 13.0771 9.15847C12.8252 8.55577 12.4925 8.27515 12.03 8.27515C11.9871 8.27515 12.03 8.27515 11.8501 8.28273C11.6309 8.29198 10.4377 8.44907 9.91012 8.78164C9.35064 9.13437 8.40414 10.2587 8.40414 12.2361C8.40414 14.0157 9.5335 15.696 10.0184 16.3351C10.0304 16.3512 10.0526 16.3839 10.0847 16.4309C11.9416 19.1428 14.2565 21.1525 16.6032 22.09C18.8624 22.9924 19.9322 23.0967 20.5405 23.0967C20.5406 23.0967 20.5406 23.0967 20.5406 23.0967C20.7961 23.0967 21.0007 23.0767 21.1812 23.0589L21.2957 23.048C22.0761 22.9788 23.7913 22.0901 24.1814 21.0059C24.4887 20.152 24.5698 19.219 24.3653 18.8804C24.2252 18.6502 23.9839 18.5344 23.6783 18.3877Z" fill="white"/>
<path d="M16.2843 0C7.61767 0 0.566869 6.99782 0.566869 15.5993C0.566869 18.3813 1.31139 21.1045 2.72178 23.4879L0.022246 31.451C-0.0280397 31.5995 0.00936287 31.7636 0.119181 31.8754C0.198454 31.9564 0.305986 32 0.415804 32C0.457882 32 0.500272 31.9937 0.541623 31.9805L8.845 29.3419C11.1172 30.5559 13.6853 31.1968 16.2844 31.1968C24.9501 31.1969 32.0002 24.1998 32.0002 15.5993C32.0002 6.99782 24.9501 0 16.2843 0ZM16.2843 27.9474C13.8387 27.9474 11.4699 27.2412 9.43378 25.9051C9.36531 25.8602 9.28583 25.8371 9.20583 25.8371C9.16354 25.8371 9.12115 25.8435 9.07991 25.8566L4.92043 27.1788L6.26318 23.2174C6.30661 23.0891 6.2849 22.9477 6.2049 22.8384C4.65435 20.7198 3.83471 18.2166 3.83471 15.5993C3.83471 8.78961 9.41955 3.24945 16.2842 3.24945C23.148 3.24945 28.7322 8.78961 28.7322 15.5993C28.7323 22.4081 23.1482 27.9474 16.2843 27.9474Z" fill="white"/>
</g>
<defs>
<clipPath id="clip0_1203:15544">
<rect width="32" height="32" fill="white"/>
</clipPath>
</defs>
</svg>
